HIERARCHY
ROOT Hips
{
	OFFSET 0.000000 0.000000 0.000000
	CHANNELS 6 Xposition Yposition Zposition Zrotation Yrotation Xrotation 
	JOINT LowerBack
	{
		OFFSET 0.000000 0.000000 0.000000
		CHANNELS 3 Zrotation Yrotation Xrotation
		JOINT Spine
		{
			OFFSET 0.028270 2.035590 -0.193380
			CHANNELS 3 Zrotation Yrotation Xrotation
			JOINT Spine1
			{
				OFFSET 0.056720 2.048850 -0.042750
				CHANNELS 3 Zrotation Yrotation Xrotation
				JOINT Neck
				{
					OFFSET 0.000000 0.000000 0.000000
					CHANNELS 3 Zrotation Yrotation Xrotation
					JOINT Neck1
					{
						OFFSET -0.054170 1.746240 0.172020
						CHANNELS 3 Zrotation Yrotation Xrotation
						JOINT Head
						{
							OFFSET 0.104070 1.761360 -0.123970
							CHANNELS 3 Zrotation Yrotation Xrotation
							End Site
							{
								OFFSET 0.000000 0.000000 0.000000
							}
						}
					}
				}
				JOINT LeftShoulder
				{
					OFFSET 0.000000 0.000000 0.000000
					CHANNELS 3 Zrotation Yrotation Xrotation
					JOINT LeftArm
					{
						OFFSET 3.362410 1.200890 -0.311210
						CHANNELS 3 Zrotation Yrotation Xrotation
						JOINT LeftForeArm
						{
							OFFSET 4.983000 -0.000000 -0.000000
							CHANNELS 3 Zrotation Yrotation Xrotation
							JOINT LeftHand
							{
								OFFSET 3.483560 -0.000000 -0.000000
								CHANNELS 3 Zrotation Yrotation Xrotation
								JOINT LeftFingerBase
								{
									OFFSET 0.000000 0.000000 0.000000
									CHANNELS 3 Zrotation Yrotation Xrotation
									JOINT LeftHandIndex1
									{
										OFFSET 0.715260 -0.000000 -0.000000
										CHANNELS 3 Zrotation Yrotation Xrotation
										End Site
										{
											OFFSET 0.000000 0.000000 0.000000
										}
									}
								}
								JOINT LThumb
								{
									OFFSET 0.000000 0.000000 0.000000
									CHANNELS 3 Zrotation Yrotation Xrotation
									End Site
									{
										OFFSET 0.000000 0.000000 0.000000
									}
								}
							}
						}
					}
				}
				JOINT RightShoulder
				{
					OFFSET 0.000000 0.000000 0.000000
					CHANNELS 3 Zrotation Yrotation Xrotation
					JOINT RightArm
					{
						OFFSET -3.136600 1.374050 -0.404650
						CHANNELS 3 Zrotation Yrotation Xrotation
						JOINT RightForeArm
						{
							OFFSET -5.241900 -0.000000 -0.000000
							CHANNELS 3 Zrotation Yrotation Xrotation
							JOINT RightHand
							{
								OFFSET -3.444170 -0.000000 -0.000000
								CHANNELS 3 Zrotation Yrotation Xrotation
								JOINT RightFingerBase
								{
									OFFSET 0.000000 0.000000 0.000000
									CHANNELS 3 Zrotation Yrotation Xrotation
									JOINT RightHandIndex1
									{
										OFFSET -0.622530 -0.000000 -0.000000
										CHANNELS 3 Zrotation Yrotation Xrotation
										End Site
										{
											OFFSET 0.000000 0.000000 0.000000
										}
									}
								}
								JOINT RThumb
								{
									OFFSET 0.000000 0.000000 0.000000
									CHANNELS 3 Zrotation Yrotation Xrotation
									End Site
									{
										OFFSET 0.000000 0.000000 0.000000
									}
								}
							}
						}
					}
				}
			}
		}
	}
}
}
MOTION
Frames: 18
Frame Time: 0.008333
1.049489 17.327509 0.808132 0.815278 67.361963 31.148984 -5.144795 3.526182 5.575898 -1.289259 4.004414 -2.068162 -2.552146 4.014123 -0.464520 2.045214 -1.528568 -3.815775 0.008846 -0.046769 0.768383 0.000000 0.000000 0.000000 0.256811 22.675613 1.880789 -65.125907 45.173542 18.252493 -0.160411 -88.761417 0.005671 -6.045500 -0.086459 0.007515 0.062694 0.058249 0.000000 0.000000 0.000000 0.000000 0.000000 0.000000 0.000000 -9.621093 5.679838 -3.203461 69.956535 31.182381 25.368745 179.713432 81.884921 179.994461 -1.120951 7.992663 -0.085037 0.026947 -0.567979 -0.000000 0.000000 0.000000 0.000000 0.000000 0.000000 0.000000 
1.273478 17.303749 0.833827 0.364325 66.802779 30.677603 -5.308030 3.541608 5.545441 -1.308692 4.030630 -2.064113 -2.505000 4.041114 -0.398480 1.945081 -1.468057 -3.932638 0.019728 -0.043897 0.735735 0.000000 0.000000 0.000000 0.222402 23.095908 1.968310 -66.378211 44.466818 16.607803 -0.118173 -89.338546 0.006304 -5.739690 -0.067150 0.006658 0.059805 0.066557 0.000000 0.000000 0.000000 0.000000 0.000000 0.000000 0.000000 -9.865065 5.799551 -3.282411 70.454948 30.864261 25.533650 179.726276 82.056534 179.995591 -0.936120 7.893706 -0.070047 0.021967 -0.563722 -0.000000 0.000000 0.000000 0.000000 0.000000 0.000000 0.000000 
1.495456 17.268321 0.859673 0.050168 66.313071 30.358180 -5.470492 3.531210 5.514350 -1.327740 4.030233 -2.060165 -2.459802 4.041008 -0.336140 1.865662 -1.441555 -4.058938 0.025822 -0.041179 0.700194 0.000000 0.000000 0.000000 0.177770 23.435036 2.058402 -67.639966 43.641955 14.987370 -0.079086 -89.875896 0.006843 -5.372519 -0.056315 0.006210 0.056074 0.075591 0.000000 0.000000 0.000000 0.000000 0.000000 0.000000 0.000000 -10.067131 5.879671 -3.348847 70.982253 30.520741 25.683945 179.738591 82.262724 179.996676 -0.758645 7.800120 -0.055855 0.017228 -0.559597 -0.000000 0.000000 0.000000 0.000000 0.000000 0.000000 0.000000 
1.715126 17.221368 0.886045 -0.104705 65.901699 30.216426 -5.645544 3.493432 5.481631 -1.349806 4.001999 -2.056940 -2.418668 4.012630 -0.279208 1.814547 -1.448434 -4.195247 0.024906 -0.038751 0.661441 0.000000 0.000000 0.000000 0.127699 23.691368 2.148710 -68.879026 42.695951 13.423137 179.957259 -89.613686 -179.992751 -4.945224 -0.059684 0.006270 0.051568 0.085422 0.000000 0.000000 0.000000 0.000000 0.000000 0.000000 0.000000 -10.209531 5.921970 -3.398653 71.518155 30.141799 25.810983 179.749271 82.481598 179.997719 -0.587647 7.717488 -0.042563 0.012707 -0.555923 -0.000000 0.000000 0.000000 0.000000 0.000000 0.000000 0.000000 
1.932667 17.162676 0.912177 -0.180720 65.572670 30.180476 -5.804811 3.433850 5.447015 -1.369240 3.950826 -2.054872 -2.383413 3.960762 -0.229345 1.789735 -1.483573 -4.343295 0.016083 -0.036656 0.619096 0.000000 0.000000 0.000000 0.059276 23.877467 2.234530 -70.058076 41.629372 11.955158 179.991496 -89.113461 -179.992511 -4.465594 -0.081097 0.007036 0.046395 0.096109 0.000000 0.000000 0.000000 0.000000 0.000000 0.000000 0.000000 -10.294340 5.933999 -3.431066 72.042387 29.712260 25.901857 179.757593 82.688294 179.998715 -0.422332 7.651840 -0.030069 0.008296 -0.552965 -0.000000 0.000000 0.000000 0.000000 0.000000 0.000000 0.000000 
2.147619 17.092478 0.938786 -0.134799 65.327043 30.289743 -5.972294 3.351237 5.414292 -1.391763 3.876247 -2.054084 -2.357428 3.885193 -0.189520 1.801861 -1.540737 -4.503120 -0.003451 -0.035080 0.572877 0.000000 0.000000 0.000000 -0.021606 23.995745 2.314733 -71.143818 40.438397 10.616036 -179.975827 -88.607307 -179.992464 -3.947776 -0.119805 0.008007 0.040809 0.107602 0.000000 0.000000 0.000000 0.000000 0.000000 0.000000 0.000000 -10.299249 5.924030 -3.442909 72.535960 29.220357 25.935990 179.762834 82.860680 179.999645 -0.264049 7.606432 -0.018273 0.003950 -0.551070 -0.000000 0.000000 0.000000 0.000000 0.000000 0.000000 0.000000 
2.359773 17.010935 0.965961 0.018881 65.161200 30.526518 -6.148685 3.249117 5.389666 -1.418048 3.782002 -2.054297 -2.343897 3.789890 -0.163413 1.854639 -1.611368 -4.674256 -0.035595 -0.034162 0.522756 0.000000 0.000000 0.000000 -0.120806 24.053211 2.387013 -72.103722 39.122217 9.437863 -179.944166 -88.080311 -179.992616 -3.410509 -0.170908 0.008881 0.035071 0.119798 0.000000 0.000000 0.000000 0.000000 0.000000 0.000000 0.000000 -10.215198 5.903395 -3.433290 72.985096 28.652612 25.889501 179.764727 82.980381 -179.999519 -0.115367 7.583492 -0.007375 -0.000406 -0.550509 -0.000000 0.000000 0.000000 0.000000 0.000000 0.000000 0.000000 
2.569011 16.918262 0.993465 0.234763 65.064847 30.840700 -6.321389 3.134266 5.382340 -1.445947 3.674715 -2.054653 -2.345461 3.681722 -0.155355 1.946332 -1.684953 -4.854882 -0.081512 -0.034018 0.469092 0.000000 0.000000 0.000000 -0.252717 24.057235 2.448799 -72.910795 37.680601 8.446563 -179.913085 -87.522156 -179.992958 -2.873388 -0.225957 0.009356 0.029388 0.132549 0.000000 0.000000 0.000000 0.000000 0.000000 0.000000 0.000000 -10.042834 5.885707 -3.402814 73.381521 27.995935 25.736984 179.763427 83.035207 -179.998819 0.019651 7.583161 0.002524 -0.004835 -0.551440 -0.000000 0.000000 0.000000 0.000000 0.000000 0.000000 0.000000 
2.775084 16.814970 1.021234 0.485344 65.024358 31.196829 -6.484859 3.013397 5.403176 -1.474934 3.561050 -2.054272 -2.364667 3.567701 -0.171105 2.074022 -1.750147 -5.040431 -0.142358 -0.034809 0.412925 0.000000 0.000000 0.000000 -0.432644 24.006500 2.498375 -73.545507 36.114926 7.653847 -179.882244 -86.928500 -179.993463 -2.354487 -0.274830 0.009034 0.023887 0.145674 0.000000 0.000000 0.000000 0.000000 0.000000 0.000000 0.000000 -9.783110 5.885135 -3.351975 73.725290 27.237202 25.451747 179.759547 83.023542 -179.998305 0.135579 7.603574 0.011126 -0.009365 -0.553929 -0.000000 0.000000 0.000000 0.000000 0.000000 0.000000 0.000000 
2.977321 16.702095 1.050182 0.816682 65.024997 31.623554 -6.666062 2.889059 5.466047 -1.511429 3.444444 -2.051855 -2.404784 3.451811 -0.216821 2.241320 -1.799999 -5.223148 -0.220345 -0.036813 0.355924 0.000000 0.000000 0.000000 -0.659024 23.884689 2.536098 -73.998371 34.423090 7.057201 -179.851602 -86.306179 -179.994093 -1.869619 -0.301918 0.008011 0.018654 0.158884 0.000000 0.000000 0.000000 0.000000 0.000000 0.000000 0.000000 -9.421324 5.909905 -3.278794 74.021955 26.370384 25.011427 179.754069 82.957217 -179.998051 0.222276 7.641133 0.017732 -0.013844 -0.557972 -0.000000 0.000000 0.000000 0.000000 0.000000 0.000000 0.000000 
3.175656 16.580760 1.079627 1.151272 65.048224 32.037849 -6.835564 2.771882 5.582672 -1.549757 3.334550 -2.046445 -2.466370 3.343899 -0.299156 2.433127 -1.822009 -5.393248 -0.315172 -0.040181 0.300658 0.000000 0.000000 0.000000 -0.960430 23.679737 2.559878 -74.264814 32.609221 6.643206 -179.820931 -85.667058 -179.994817 -1.424201 -0.298983 0.006389 0.013474 0.172019 0.000000 0.000000 0.000000 0.000000 0.000000 0.000000 0.000000 -8.975766 5.973430 -3.184577 74.285014 25.384545 24.399720 179.748765 82.859122 -179.998131 0.271129 7.692921 0.021741 -0.018191 -0.563287 -0.000000 0.000000 0.000000 0.000000 0.000000 0.000000 0.000000 
3.369513 16.452815 1.110095 1.510182 65.080356 32.446314 -7.005090 2.665377 5.765195 -1.592885 3.235046 -2.037055 -2.550882 3.247933 -0.424109 2.644568 -1.809751 -5.537937 -0.427981 -0.045200 0.250300 0.000000 0.000000 0.000000 -1.340960 23.362459 2.570234 -74.348534 30.674865 6.383794 -179.790287 -85.034673 -179.995613 -1.018000 -0.255277 0.004470 0.008080 0.184825 0.000000 0.000000 0.000000 0.000000 0.000000 0.000000 0.000000 -8.441545 6.079797 -3.066796 74.530486 24.277537 23.609185 179.745673 82.767311 -179.998646 0.269128 7.756091 0.022055 -0.022123 -0.569518 -0.000000 0.000000 0.000000 0.000000 0.000000 0.000000 0.000000 
3.558485 16.320484 1.141990 1.903561 65.111729 32.848305 -7.178885 2.572272 6.022578 -1.641972 3.148451 -2.022925 -2.658917 3.166481 -0.596002 2.867952 -1.757842 -5.643076 -0.559346 -0.052131 0.208501 0.000000 0.000000 0.000000 -1.803040 22.900800 2.567805 -74.256740 28.624632 6.243476 -179.759821 -84.438583 -179.996490 -0.641533 -0.163834 0.002655 0.002051 0.197067 0.000000 0.000000 0.000000 0.000000 0.000000 0.000000 0.000000 -7.816533 6.228871 -2.922678 74.776234 23.050382 22.643026 179.747151 82.730954 -179.999712 0.201734 7.830642 0.017572 -0.025288 -0.576166 0.000000 0.000000 0.000000 0.000000 0.000000 0.000000 0.000000 
3.742212 16.186336 1.175774 2.348196 65.137479 33.251041 -7.360883 2.493218 6.359833 -1.697873 3.075074 -2.003432 -2.790462 3.099644 -0.816405 3.096101 -1.663146 -5.694377 -0.709346 -0.061191 0.179080 0.000000 0.000000 0.000000 -2.342286 22.262039 2.553730 -73.997801 26.466554 6.182912 -179.730015 -83.912769 -179.997483 -0.277105 -0.020701 0.001245 -0.005115 0.208501 0.000000 0.000000 0.000000 0.000000 0.000000 0.000000 0.000000 -7.097031 6.414659 -2.749287 75.039680 21.709525 21.515559 179.755662 82.808307 179.998527 0.051483 7.920256 0.006693 -0.027265 -0.582647 0.000000 0.000000 0.000000 0.000000 0.000000 0.000000 0.000000 
3.920590 16.053077 1.211856 2.858731 65.157292 33.663340 -7.550898 2.427001 6.776462 -1.760368 3.013126 -1.978570 -2.944803 3.045151 -1.084894 3.322002 -1.521625 -5.677536 -0.877266 -0.072528 0.166074 0.000000 0.000000 0.000000 -2.951158 21.412504 2.529457 -73.579339 24.220577 6.158324 -179.701515 -83.485535 -179.998739 0.099292 0.174285 0.000840 -0.013914 0.218887 0.000000 0.000000 0.000000 0.000000 0.000000 0.000000 0.000000 -6.281174 6.628928 -2.544204 75.336179 20.261431 20.246536 179.773483 83.061729 179.995904 -0.201288 8.031182 -0.012184 -0.027630 -0.588313 0.000000 0.000000 0.000000 0.000000 0.000000 0.000000 0.000000 
4.093601 15.923324 1.250656 3.454770 65.174568 34.100509 -7.751750 2.369967 7.267037 -1.829600 2.958486 -1.945408 -3.119875 2.998128 -1.386125 3.543496 -1.349516 -5.590448 -1.060737 -0.085939 0.170133 0.000000 0.000000 0.000000 -3.600879 20.358363 2.496174 -73.009431 21.874453 6.158097 -179.676666 -83.206279 179.999644 0.517222 0.426298 0.001843 -0.024883 0.227899 0.000000 0.000000 0.000000 0.000000 0.000000 0.000000 0.000000 -5.363060 6.838702 -2.308779 75.674790 18.742029 18.880066 179.802501 83.561989 179.992180 -0.588645 8.171651 -0.042264 -0.025673 -0.592430 0.000000 0.000000 0.000000 0.000000 0.000000 0.000000 0.000000 
4.261677 15.799618 1.292221 4.129853 65.194243 34.558246 -7.950669 2.318538 7.818639 -1.902376 2.906717 -1.905894 -3.313150 2.953316 -1.717263 3.753261 -1.135122 -5.421655 -1.256633 -0.101341 0.195127 0.000000 0.000000 0.000000 -4.287686 19.069980 2.455643 -72.291111 19.483084 6.128698 -179.656519 -83.073227 179.997483 1.004761 0.728541 0.005548 -0.038254 0.235340 0.000000 0.000000 0.000000 0.000000 0.000000 0.000000 0.000000 -4.354893 7.041326 -2.044208 76.065722 17.151533 17.433968 179.843439 84.365563 179.987163 -1.135139 8.343604 -0.086150 -0.021170 -0.594266 -0.000000 0.000000 0.000000 0.000000 0.000000 0.000000 0.000000 
4.425322 15.683968 1.336604 4.881519 65.222220 35.037554 -8.142071 2.266255 8.415036 -1.976614 2.851080 -1.854627 -3.519582 2.903176 -2.045338 3.952715 -0.912955 -5.188496 -1.458909 -0.117939 0.236650 0.000000 0.000000 0.000000 -4.971668 17.614110 2.407654 -71.435497 17.004004 6.095291 -179.644716 -83.137521 179.994590 1.589759 1.085115 0.013253 -0.054383 0.241006 0.000000 0.000000 0.000000 0.000000 0.000000 0.000000 0.000000 -3.264462 7.184410 -1.760134 76.509571 15.551978 15.968558 179.895687 85.539567 179.980596 -1.887751 8.543049 -0.148950 -0.013332 -0.592919 -0.000000 0.000000 0.000000 0.000000 0.000000 0.000000 0.000000 
